<?xml version="1.0" encoding="UTF-8"?>
<!DOCTYPE svg PUBLIC "-//W3C//DTD SVG 1.1//EN" "http://www.w3.org/Graphics/SVG/1.1/DTD/svg11.dtd">
<svg xmlns="http://www.w3.org/2000/svg" version="1.1" width="937px" height="938px" style="shape-rendering:geometricPrecision; text-rendering:geometricPrecision; image-rendering:optimizeQuality; fill-rule:evenodd; clip-rule:evenodd" xmlns:xlink="http://www.w3.org/1999/xlink">
<g><path style="opacity:1" fill="#ddf4fd" d="M -0.5,-0.5 C 311.833,-0.5 624.167,-0.5 936.5,-0.5C 936.5,312.167 936.5,624.833 936.5,937.5C 624.167,937.5 311.833,937.5 -0.5,937.5C -0.5,624.833 -0.5,312.167 -0.5,-0.5 Z"/></g>
<g><path style="opacity:1" fill="#fefefe" d="M 15.5,14.5 C 317.5,14.5 619.5,14.5 921.5,14.5C 921.5,316.833 921.5,619.167 921.5,921.5C 619.5,921.5 317.5,921.5 15.5,921.5C 15.5,619.167 15.5,316.833 15.5,14.5 Z"/></g>
<g><path style="opacity:1" fill="#383536" d="M 742.5,696.5 C 742.667,594.833 742.5,493.166 742,391.5C 741.283,392.044 740.783,392.711 740.5,393.5C 710.167,492.833 679.833,592.167 649.5,691.5C 635.245,692.482 620.912,692.816 606.5,692.5C 576.363,594.09 546.03,495.757 515.5,397.5C 515.108,395.821 514.608,394.154 514,392.5C 513.5,493.833 513.333,595.166 513.5,696.5C 494.833,696.5 476.167,696.5 457.5,696.5C 457.5,550.5 457.5,404.5 457.5,258.5C 481.176,258.167 504.843,258.5 528.5,259.5C 561.106,368.385 594.272,477.051 628,585.5C 660.991,476.532 693.825,367.532 726.5,258.5C 750.167,258.5 773.833,258.5 797.5,258.5C 797.5,404.5 797.5,550.5 797.5,696.5C 779.167,696.5 760.833,696.5 742.5,696.5 Z"/></g>
<g><path style="opacity:1" fill="#193bba" d="M 256.5,533.5 C 236.34,532.503 216.007,532.17 195.5,532.5C 195.5,587.167 195.5,641.833 195.5,696.5C 175.167,696.5 154.833,696.5 134.5,696.5C 134.5,550.5 134.5,404.5 134.5,258.5C 180.835,258.333 227.168,258.5 273.5,259C 317.909,262.096 349.076,283.929 367,324.5C 378.062,352.824 382.062,382.157 379,412.5C 377.074,440.277 368.741,465.943 354,489.5C 349.242,496.262 343.742,502.429 337.5,508C 331.594,512.755 325.594,517.255 319.5,521.5C 342.876,579.798 366.543,637.965 390.5,696C 367.16,696.833 343.826,696.666 320.5,695.5C 299.151,641.474 277.818,587.474 256.5,533.5 Z"/></g>
<g><path style="opacity:1" fill="#fefefe" d="M 196.5,324.5 C 219.502,324.333 242.502,324.5 265.5,325C 287.666,327.83 302.833,339.663 311,360.5C 321.125,390.341 319.125,419.341 305,447.5C 295.932,460.62 283.432,467.953 267.5,469.5C 243.833,469.5 220.167,469.5 196.5,469.5C 196.5,421.167 196.5,372.833 196.5,324.5 Z"/></g>
<g><path style="opacity:1" fill="#646263" d="M 742.5,696.5 C 741.833,595.5 741.167,494.5 740.5,393.5C 740.783,392.711 741.283,392.044 742,391.5C 742.5,493.166 742.667,594.833 742.5,696.5 Z"/></g>
<g><path style="opacity:1" fill="#dedede" d="M 515.5,397.5 C 514.833,497.167 514.167,596.833 513.5,696.5C 513.333,595.166 513.5,493.833 514,392.5C 514.608,394.154 515.108,395.821 515.5,397.5 Z"/></g>
<g><path style="opacity:1" fill="#9ba8e0" d="M 196.5,324.5 C 196.5,372.833 196.5,421.167 196.5,469.5C 220.167,469.5 243.833,469.5 267.5,469.5C 243.672,470.498 219.672,470.831 195.5,470.5C 195.168,421.664 195.501,372.997 196.5,324.5 Z"/></g>
<g><path style="opacity:1" fill="#8697da" d="M 256.5,533.5 C 236.5,533.5 216.5,533.5 196.5,533.5C 196.832,588.003 196.499,642.336 195.5,696.5C 195.5,641.833 195.5,587.167 195.5,532.5C 216.007,532.17 236.34,532.503 256.5,533.5 Z"/></g>
<g><path style="opacity:1" fill="#9f9d9e" d="M 649.5,691.5 C 642.699,692.831 635.533,693.497 628,693.5C 620.659,693.5 613.492,693.166 606.5,692.5C 620.912,692.816 635.245,692.482 649.5,691.5 Z"/></g>
</svg>